<svg xmlns="http://www.w3.org/2000/svg" width="146" height="26" viewBox="0 0 146 26">
  <path d="M2.69 14.22c.2.11.47.17.81.19l.07.04c.02.08.06.16.12.23-.01.09-.05.17-.12.23v.12c-.64.35-.87.63-.69.84-.32.1-.28.27.11.5-.12.13-.29.2-.5.19-.04.21-.04.45 0 .73l-.16.15c.09.05.17.14.24.27-.05.08-.06.19-.03.31.16-.05.33-.01.49.12.09.08.21.17.38.26l.03.08c.17-.01.33-.09.46-.23l.24.04c.02.22.14.27.34.16.22.1.42.05.62-.16.1.02.22.01.35-.04.09.05.19.13.26.23.16-.03.31-.09.47-.19.07-.01.15-.04.24-.08l.1-.04c-.01-.22.01-.47.05-.77l-.08-.07.03-.43-.03-.12.08-.42-.15-.31.07-.16c.02-.14 0-.29-.03-.46v-.23c-.13.03-.21.12-.24.27l-.1-.04c-.12-.3-.37-.46-.74-.5l.04-.27c.24-.05.45-.18.66-.39.13.03.27.1.41.2h.12c.17-.36.34-.3.53.15.24-.13.53-.08.84.15.05-.21.14-.34.28-.39 0 .38.1.6.31.65v.12l-.97.15c.04.13.15.22.31.26-.08.12-.19.2-.35.23.04.12.09.28.19.46l-.26.31c.04.09.11.16.2.23-.1.25-.09.51.02.81l-.15.16.07.23.05.07c-.14.2-.14.39.03.58v.27c-.02.12-.08.22-.19.3-.09.11-.22.17-.39.2v.11c.31.13.35.36.12.7.14.07.28.19.43.35-.25.25-.25.51 0 .77-.3-.07-.31.08-.05.46l-.26.15.11.19c-.1.35.01.6.34.77.07.31.31.46.7.46.04.12.04.26 0 .42-.29-.01-.57.08-.84.27-.08-.07-.19-.14-.31-.19-.1.03-.17.09-.24.19-.1-.03-.21-.02-.31.04-.27-.11-.58-.15-.96-.11.09-.28.02-.47-.19-.58.38-.05.57-.27.58-.65.45 0 .57-.13.38-.39.15-.22.13-.44-.07-.65l.07-.15c.25-.07.28-.21.09-.42.17-.25.09-.43-.24-.54.12-.18.33-.31.62-.38-.1-.24-.29-.39-.59-.43-.02-.11-.05-.23-.1-.38-.16-.03-.31-.01-.47.07-.2-.05-.43-.04-.69.04l-.27-.11c-.11.01-.21.06-.31.16-.22-.19-.45-.22-.69-.08-.17-.16-.33-.14-.49.04l-.24-.04-.27-.07-.07.23-.03.08c-.24-.11-.43-.06-.57.16.07.24.24.31.5.23.02.14.01.29-.04.46.23.39.12.57-.35.54.06.12.17.22.31.31-.12.21-.17.44-.12.7-.08.08-.14.18-.19.31.26.04.33.23.23.57.14.05.31.08.5.08l.35.57.07.08-.19.35-.19.12c-.22-.1-.47-.1-.74 0-.15-.08-.34-.13-.56-.16-.17.05-.37.07-.58.04.02-.11 0-.22-.08-.31-.08.07-.17.1-.28.08 0-.41.19-.66.57-.77.01-.11-.01-.24-.07-.38.24-.27.26-.49.07-.66.15-.2.14-.42-.03-.65.31-.26.35-.6.16-1l.03-.15c.03-.09.1-.2.2-.31-.26-.2-.32-.46-.2-.77-.17-.23-.13-.45.12-.65l-.15-.27c.1-.13.12-.28.08-.46l-.04-.15c.12-.06.21-.16.27-.31-.52-.14-.57-.36-.15-.65-.18-.05-.3-.18-.35-.39.25-.02.36-.05.35-.12l-.24-.08c-.02-.07-.05-.13-.12-.19.05-.25-.02-.52-.19-.81-.29.17-.55.11-.77-.2v-.35c.07-.05.17-.13.27-.23.38.1.8.09 1.27-.04.23.07.45.05.66-.06zm10.55-.15c.38-.04.75.05 1.11.27.05.24.16.49.33.77v.15c-.09.04-.15.12-.17.24.23.09.32.25.25.5.05.05.13.09.24.12l.08.43v.27l.04.07.05.11-.09.23c.09.09.18.16.3.2l-.05.31.2.23c-.02.23.03.48.17.73-.08.11-.12.25-.12.42.12.07.25.16.37.27l-.12.16c.12.18.19.39.24.65l.17.31c0 .03.03.06.07.08-.12.28-.1.55.09.81-.09.06-.16.17-.21.31.13.09.29.18.49.27-.1.25 0 .42.29.5.1.31.42.47.98.47l.05.26c0 .12-.02.27-.05.46-.15.08-.33.09-.53.04-.41.3-.92.38-1.52.23-.12.1-.27.12-.45.08-.04-.1-.12-.19-.25-.27.05-.25-.04-.38-.29-.39v-.46c.33.04.52-.11.54-.46l.16-.19c.21.11.38.09.54-.08-.17.03-.36.01-.57-.04l-.12-.12c.12-.2.1-.36-.08-.5.04-.13.03-.27-.05-.43-.12-.04-.25-.1-.36-.19-.13 0-.27.02-.41.07-.12.02-.22 0-.33-.03h-.13c-.09.02-.19.02-.33 0-.15.04-.3.05-.45.03-.16.05-.37.09-.62.12-.22.17-.28.39-.16.66-.1.08-.24.13-.41.15.05.19.04.41-.04.65.23.12.38.31.49.58.28.14.37.38.28.73l-.33.07c-.19.1-.43.15-.69.15l-.21.12c-.5-.25-1.05-.28-1.63-.08-.23-.27-.34-.6-.33-1 .21-.16.45-.24.74-.23.14-.26.37-.48.69-.65-.11-.4-.01-.71.29-.92l.04-.23c.01-.17.01-.4 0-.69v-.16c.12-.22.19-.5.2-.81l.17-.15c.08-.18.09-.38.04-.62.12-.12.22-.29.29-.5.03 0 .05-.01.07-.04l.05-.07.04-.08c.02-.2 0-.43-.09-.69.15-.22.24-.49.29-.81l.24-.43c.1-.2.12-.45.05-.73l.08-.15.21.11c.01-.09.04-.18.08-.27v-.11c-.1-.25-.07-.52.09-.81zm.53 1.81c-.15.12-.15.26 0 .42-.31.04-.36.24-.17.62-.06.08-.14.12-.24.12-.08.29-.04.42.13.39-.15.2-.19.43-.13.69-.2.13-.24.31-.12.54-.28.15-.46.4-.54.73.17.15.39.23.66.23.01.36.23.45.66.27.14.19.32.2.54.04.09.16.24.2.44.12-.14-.24-.24-.54-.32-.89.15-.04.21-.13.19-.27-.09-.09-.23-.12-.4-.11-.02-.18.08-.31.29-.39-.11-.12-.26-.22-.46-.31-.02-.22-.13-.4-.37-.54.05-.11.13-.24.26-.38-.07-.06-.15-.11-.26-.16.07-.39.02-.76-.16-1.12zm-.49 4.1c.05.11.09.11.12 0h-.12zm.82-3.4c.03.21.08.21.13 0h-.13zm7.71-2.3h-.03.07-.04.07-.04.04c.14.04.3.1.48.18.61-.15 1.23-.05 1.86.29l.11.26v.14c-.28-.03-.56.04-.83.22-.05-.1-.14-.18-.26-.26-.17.19-.4.24-.69.15-.12.16-.16.33-.1.51-.17.24-.17.5 0 .77-.03.14-.03.3.04.47-.06.18-.07.39-.04.62-.09.28-.05.57.1.87-.1.3-.12.64-.07 1.03l-.07.48-.03.14c.08.07.14.17.18.29l-.14.11c.07.23.08.49.04.77l.14.33c-.11.15-.2.34-.25.58l.04.22c.28.11.45.3.54.59l.19.11.22-.07c.17.12.33.07.49-.15.1.12.24.25.43.4 0 .03.03.05.07.07l.22.15v.33l-.07.03c-.19-.03-.4 0-.62.07-.17-.03-.37-.03-.59 0l-.11.07c-.21-.09-.43-.09-.65 0l-.26-.11c-.11.06-.19.13-.25.24-.44-.12-.91-.1-1.39.04-.17-.12-.35-.13-.55-.04-.18-.11-.41-.17-.69-.18l-.07-.04c.12-.22.12-.44 0-.69.16-.12.36-.2.63-.26l.03-.07.07-.04h.11c.03.05.06.09.11.11.21-.17.46-.21.77-.11.06-.1.14-.2.25-.29.04-.18.06-.4.07-.66l.03-.11c-.03-.12-.06-.25-.07-.4.02-.01.05-.03.07-.07-.05-.1-.09-.22-.11-.36.02-.09.07-.2.14-.33-.06-.2-.07-.43-.04-.69l-.03-.11-.04-.11c.02-.07.04-.17.04-.3v-.11l-.04-.07.07-.26-.03-.15c-.05-.22-.07-.48-.04-.76l.04-.22c-.01-.15-.05-.32-.11-.51l.04-.15c.05-.23.05-.51 0-.84l.04-.26c0-.04-.01-.08-.04-.11v-.4c-.4-.28-.87-.3-1.39-.07-.12-.13-.28-.23-.47-.29l-.04-.11-.03-.07c.39-.63.99-.84 1.79-.62l.58-.15c.02.01.05-.01.07-.04h.04zm7-.53c.19.09.42.13.66.11.1.06.24.12.41.18.05-.1.14-.18.26-.22.12.09.21.21.29.37.1 0 .23-.01.37-.04l.18.22.08.07c.56.04.9.31 1.03.81l.22.18-.07.26.47.37c-.03.14-.03.3.04.48-.07.14-.17.27-.33.4.04.12.02.26-.04.4-.21.21-.35.5-.44.88-.14.07-.33.15-.56.22l-.07.04c-.01.18-.08.31-.22.41.06.12.16.25.29.4 0 .11.03.23.08.37l.07.07.04.11-.11.26c.14.23.16.49.03.77l.19.15c-.02.17 0 .36.04.59l-.04.29c.15.13.36.25.62.37.09.16.24.3.44.4l.14.07.15.26-.18.4c-.12.03-.26.04-.41.04-.23.16-.48.19-.77.07-.09.03-.19.05-.3.07-.13-.32-.4-.55-.8-.7.21-.63.19-1.09-.07-1.36.09-.16.08-.31-.04-.44.25-.18.21-.35-.1-.51.1-.29.07-.56-.11-.81.04-.16.01-.34-.07-.52-.29-.19-.6-.22-.91-.07-.17-.27-.4-.33-.71-.18-.17-.22-.33-.16-.48.18-.42-.15-.6.17-.54.95l.11.07c-.04.13-.12.23-.26.29l.15.11c-.21.42-.15.71.18.88-.15.09-.19.23-.11.4-.14.07-.19.2-.11.4.3.19.63.21.99.07.31.28.42.64.33 1.1-.12.01-.24.08-.37.18-.29-.04-.66-.03-1.1.04h-.15c-.24-.08-.5-.1-.77-.04-.1-.03-.21-.08-.33-.15-.15.02-.31.02-.51 0-.08-.12-.19-.2-.33-.26.09-.19.23-.39.43-.59l.19-.29c.24.12.44.07.62-.15l-.07-.26c.15-.2.2-.46.15-.77l.22-.07.08-.04c0-.17-.07-.3-.22-.4.03-.11 0-.21-.07-.29.11-.48.07-.95-.11-1.43.15-.53.16-1.1.04-1.73.06-.2.08-.43.08-.7-.07-.13-.13-.3-.18-.51.22-.12.23-.28.03-.48.06-.05.1-.13.11-.22-.25-.36-.62-.52-1.11-.48 0-.09-.05-.17-.15-.26v-.11c.08-.08.11-.19.11-.33.17-.12.4-.12.69 0 .1-.27.3-.33.59-.18.22-.18.41-.15.59.07.24-.31.41-.31.54 0 .29-.15.56-.08.77.22-.02-.13.06-.3.22-.46zm1.55 1.11l-.15.07c-.21-.03-.42.03-.63.18-.24-.19-.49-.21-.74-.07-.26-.16-.47-.1-.66.18-.4-.03-.56.14-.47.51-.1.09-.13.2-.07.33.13.07.29.09.47.04l.04.11c-.32.08-.42.29-.29.62-.09.01-.17.04-.26.07-.09.1-.09.21 0 .33-.03.21.07.36.29.44.19.38.47.36.8-.04l.15.04c.06.23.22.34.49.33.28.17.43.09.44-.22l.26-.07c.35.13.68.05.99-.22.1 0 .23-.04.36-.11.03-.13.04-.29.04-.48.22-.24.16-.4-.18-.47.31-.01.43-.16.33-.44.05-.28-.07-.41-.37-.4-.18-.32-.46-.57-.84-.73zm-2.5 4.85h.18c-.06.18-.13.18-.18 0zm8.97 2.26c.02.09.07.15.14.17h.17c.16-.12.34-.09.53.07.13-.04.24 0 .32.12.16.07.22.2.17.39.1.13.13.27.1.43-.01.11-.05.26-.1.44-.15.05-.26.17-.34.34-.16.04-.31.13-.46.26-.14-.03-.3-.04-.48-.02-.19-.1-.37-.26-.51-.49-.08-.05-.15-.12-.23-.22l-.05-.04c0-.07.03-.14.08-.2-.03-.31.09-.56.36-.75.06-.16.15-.33.3-.5zm.61-.33c.02.1.06.16.14.19h.17c.12.02.29.13.48.31.12-.05.23 0 .31.13.15.08.21.22.17.43.09.14.12.3.11.49-.02.12-.05.28-.11.48-.14.06-.25.19-.34.37-.16.05-.31.15-.46.3-.14-.04-.31-.05-.49-.03-.18-.11 0-.18.56-.22l.56-.62c.13-.24.14-.5.02-.78l-.29-.21c-.24-.38-.5-.53-.78-.45-.43.03-.54.01-.33-.06.02-.04.12-.15.28-.33zm-.1.62c-.09.32-.03.36.19.1-.07.01-.14-.02-.19-.1zm.17-.08l-.04.1c.09.04.11 0 .04-.1zM61.41.55c.46.22.99.31 1.59.26.23.15.56.3.96.44.12-.24.32-.42.61-.52.27.21.5.5.7.87.24 0 .54-.03.87-.09l.44.52.17.18c1.34.1 2.16.75 2.45 1.92l.52.44-.17.61 1.13.87c-.09.34-.06.71.09 1.13-.15.33-.42.65-.78.96.07.29.04.61-.09.96-.49.49-.84 1.19-1.05 2.09-.34.17-.78.35-1.32.52l-.17.09c-.03.42-.2.74-.52.98.15.28.38.6.69.96 0 .26.06.55.18.87l.17.17.09.26-.26.61c.33.56.36 1.17.09 1.83l.43.35c-.03.4 0 .86.09 1.4l-.09.7c.36.3.86.59 1.49.87.22.38.57.7 1.05.96l.35.17.34.61-.43.96c-.29.07-.62.1-.96.09-.53.38-1.15.44-1.84.17-.19.07-.43.13-.7.17-.34-.77-.97-1.32-1.91-1.66.5-1.51.44-2.59-.17-3.23.23-.38.2-.73-.09-1.05.59-.43.51-.84-.26-1.22.25-.69.17-1.33-.26-1.92.08-.38.02-.79-.17-1.22-.7-.45-1.43-.51-2.18-.17-.4-.64-.96-.79-1.67-.44-.4-.52-.78-.38-1.14.44-1-.36-1.44.4-1.3 2.27l.26.18c-.07.31-.28.55-.61.7l.35.26c-.49 1-.34 1.7.43 2.09-.35.22-.45.54-.26.96-.35.16-.44.48-.26.96.7.44 1.5.5 2.36.17.73.66.99 1.54.78 2.62-.28.03-.57.18-.87.44-.7-.1-1.57-.08-2.62.09h-.34c-.56-.2-1.18-.23-1.84-.09-.23-.07-.49-.19-.78-.35-.35.05-.76.05-1.22 0-.19-.28-.45-.48-.79-.61.21-.46.56-.93 1.05-1.4l.43-.7c.54.28 1.04.16 1.49-.35l-.18-.61c.37-.48.49-1.09.35-1.84l.52-.17.18-.09c0-.39-.17-.71-.53-.96.07-.26.02-.49-.17-.7.25-1.13.17-2.26-.26-3.4.35-1.26.38-2.63.09-4.12.14-.47.19-1.02.17-1.66-.16-.31-.3-.72-.44-1.22.54-.29.56-.67.09-1.14.12-.09.21-.26.24-.49-.6-.85-1.47-1.23-2.62-1.13-.02-.21-.13-.41-.35-.61V2.3c.17-.2.26-.46.26-.79.41-.28.96-.28 1.66 0 .24-.65.71-.8 1.4-.44.51-.42.98-.36 1.39.17.56-.72 1-.72 1.31 0 .69-.36 1.3-.19 1.84.52-.03-.43.14-.83.52-1.21zm3.69 2.62l-.35.17c-.51-.07-1 .08-1.48.43-.57-.45-1.16-.51-1.75-.18-.62-.37-1.15-.22-1.57.44-.97-.07-1.35.34-1.15 1.22-.24.21-.3.47-.17.79.33.18.71.2 1.13.09l.08.26c-.76.2-1 .69-.69 1.48-.19.02-.39.08-.61.18-.23.23-.23.49 0 .79-.07.5.16.85.7 1.05.47.9 1.11.87 1.92-.09l.35.09c.13.55.51.81 1.14.79.66.4 1.01.22 1.04-.52l.62-.17c.83.3 1.62.13 2.36-.52.25 0 .54-.09.87-.26.06-.3.09-.68.09-1.13.52-.58.38-.96-.44-1.14.76-.02 1.02-.37.79-1.05.14-.66-.16-.98-.88-.96-.43-.78-1.1-1.36-2-1.76zm-5.96 11.54h.44c-.15.43-.3.43-.44 0zM86.6 1.81h-.09.17-.08.17-.09.09c.33.08.7.23 1.13.44 1.45-.35 2.93-.12 4.42.7l.26.61v.33c-.68-.07-1.34.1-1.99.52-.13-.23-.33-.44-.61-.61-.4.44-.95.56-1.64.35-.29.37-.38.78-.26 1.22-.42.58-.42 1.19 0 1.83-.08.34-.05.71.09 1.12-.14.43-.17.92-.09 1.48-.21.66-.12 1.36.26 2.08-.24.71-.29 1.52-.17 2.44L88 15.46l-.09.33c.2.18.35.41.44.7l-.35.26c.18.55.2 1.16.09 1.83l.33.79c-.27.35-.47.81-.6 1.38l.09.52c.65.26 1.08.72 1.29 1.4l.44.26.52-.17c.42.29.8.17 1.13-.35.24.28.59.6 1.03.96.01.06.07.11.17.16l.52.35v.79l-.18.09c-.45-.07-.94-.01-1.47.17-.4-.08-.87-.08-1.4 0l-.26.18c-.51-.21-1.03-.21-1.55 0l-.61-.26c-.19.09-.37.27-.52.52-1.05-.28-2.15-.25-3.3.09-.4-.28-.83-.31-1.31-.09-.42-.26-.96-.4-1.65-.44l-.17-.09c.31-.51.31-1.06 0-1.64.38-.28.87-.48 1.49-.61l.07-.17.17-.09h.26c.05.12.14.2.26.26.49-.41 1.1-.49 1.84-.26.15-.24.35-.48.59-.7.1-.42.16-.94.18-1.57l.09-.26c-.08-.28-.14-.6-.17-.95.07-.02.12-.08.17-.17-.13-.24-.21-.54-.26-.87.06-.22.18-.48.35-.78-.14-.48-.17-1.02-.09-1.64l-.09-.26-.09-.26c.07-.17.09-.41.09-.7v-.26l-.09-.17.17-.61-.09-.35c-.13-.52-.16-1.13-.09-1.81l.09-.52c-.02-.35-.11-.76-.25-1.22l.07-.35c.12-.55.12-1.21 0-1.99l.09-.61c.01-.09-.02-.18-.09-.26v-1c-.95-.66-2.05-.72-3.28-.17-.3-.3-.68-.54-1.13-.7l-.09-.26-.06-.16c.94-1.51 2.35-2.01 4.26-1.48l1.37-.35c.06.01.12-.02.18-.09h.09zm18.13.05c.42-.08.76.05 1.05.4.18-.11.39-.16.64-.16.14.17.33.31.58.4.22.61.68 1.04 1.36 1.29-.22.21-.36.51-.4.89.63.08.96.41.97.98l.49.31c-.18.27-.28.59-.33.98.4.12.88.33 1.45.65-.14.34-.41.63-.8.89.15.07.29.18.4.31.54-.65.95-.49 1.22.49l-.33.4c-.48-.09-.72.07-.74.49.43-.1.84-.02 1.22.24-.31.22-.72.36-1.22.4v.24c.25.1.49.08.74-.09l.4.33c-.12.48-.06.98.16 1.52.32-.28.38-.65.18-1.12.75-.23.76-.69.07-1.38l1.06-.24c.01-.34.09-.72.23-1.13l-.07-.16c.04-.16.07-.38.07-.65-.12-.01-.22-.06-.32-.16 1.74-1.35 2.08-2.11 1.05-2.27l-.09-.24c.57-.34.68-.79.33-1.36.52-.21.9-.62 1.13-1.22.57-.08 1.08-.35 1.53-.8h.24c.27.51.7.7 1.3.58.13.36.19.76.17 1.2l.07.16c-.17.38-.19.82-.07 1.29-.19.49-.14.98.16 1.47-.26.36-.28.79-.09 1.29-.15.2-.26.44-.31.72.11.3.33.55.64.73-.55.75-.66 1.2-.33 1.36-.26.35-.19.68.18.98-.02.32.03.64.16.96-.27.37-.21.73.15 1.07.05.3-.08.57-.4.8-.03.39.06.8.24 1.2l.15.58v2.41l.17.09c-.17.41-.19.87-.07 1.38l-.09.31.56.09c.09.16.12.38.09.65l.4.25c.12.23.35.42.65.56.01.06.06.11.15.16.02.06.09.11.18.16.02.09.08.17.16.24-.12.22-.25.52-.41.89-.41.19-.87.48-1.38.89-.26-.13-.56-.21-.89-.24-.22.27-.54.43-.96.49-.08-.15-.21-.26-.4-.33-.9.48-1.75.43-2.58-.16v-.49c.08-.27.14-.75.16-1.45l.4-.4c-.03-.28.03-.58.16-.89.25.13.5.1.73-.07.04-.24-.02-.49-.16-.73.28-.54.15-.94-.4-1.21.12-.2.31-.39.56-.58-.07-.24-.17-.51-.33-.8.09-.16.25-.32.48-.49-.04-.28-.15-.58-.31-.89.27-.36.33-.79.16-1.29.32-.37.4-.85.24-1.45l.16-.49c-.13-.2-.35-.33-.65-.4-.02-.12-.07-.25-.16-.4.12-.38.49-.6 1.13-.64-.05-.35-.25-.62-.57-.8.19-.19.35-.43.49-.73-.36-.01-.63-.17-.81-.49-.52.29-.69.75-.49 1.38-.31.34-.31.69 0 1.05-.55.24-.66 1.02-.33 2.34-.54.12-.89.47-1.04 1.05.33-.14.62-.38.89-.71.29.17.64.28 1.05.31-.49.41-.89.97-1.2 1.69-.27-.02-.57.01-.9.09l-.16 1.29c-.24.05-.51.05-.8 0-.22.21-.42.51-.57.89-.56-.13-1.18-.1-1.85.09-.27-.17-.43-.45-.49-.82-.6-.31-1.01-.88-1.2-1.69l-.73-.07c-.28-.42-.61-.42-.98 0l.33.56-.33.49c.07.45.07.99 0 1.61.22.17.52.37.89.58-.01.47.18.9.58 1.29-.14.22-.22.49-.24.8.17.16.41.3.71.4.07.51.35.91.83 1.2v.24c-.9.78-1.98 1.24-3.23 1.38l-.49.4c-.9-.37-1.89-.43-2.99-.16-.19-.57-.55-1.11-1.04-1.62 0-.05-.04-.1-.09-.16.34-.44.55-1.01.64-1.69l1.05-.49c.09.04.17.04.24 0l.16-.16c-.02-.4-.16-.83-.4-1.29v-.24c.22-.65.27-1.38.16-2.18.02-.4 0-.91-.07-1.54l.07-.24c.05-.23.09-.55.09-.96l-.16-.16c.12-.34.12-.72 0-1.14v-.65l.16-.33c-.12-.37-.12-.8 0-1.29.04-.21 0-.43-.09-.65l.09-.47.09-.42-.24-.31c.31-.94.31-1.94 0-2.98l.07-.16.17-.49c-.19-.16-.43-.24-.74-.24l-.4-.33c.15-.36.1-.71-.16-1.05v-.99c.28-.79.79-.82 1.53-.09 0-.38.16-.76.46-1.13zm2.34 10.18c-.17.07-.26.2-.32.4.79.61 1.04.5.74-.31l-.42-.09zm-.23-1.14c.4.59.56.62.47.09l-.47-.09zm.23 3.81l-.23.16c.28.25.36.2.23-.16zm.34-1.22c-.39.29-.44.65-.16 1.07.09-.26.28-.45.56-.58-.1-.19-.23-.35-.4-.49zm0 6.7l-.16.24c.24.01.3-.07.16-.24zm2.57-10.81l-.08.4c.36.03.39-.1.08-.4zm3.72-2.91l.16.24c-.29.13-.34.05-.16-.24zm2.1 2.02c-.12.56.12.75.73.56-.07-.33-.31-.52-.73-.56zM118.94 3c.17 0 .39.03.64.09.16.15.19.34.09.56-.4-.02-.64-.23-.73-.65zm15.29-1.7c.9-.11 1.77.11 2.64.65.12.56.39 1.17.78 1.83v.37c-.22.09-.35.28-.4.56.56.21.76.61.6 1.19.12.12.31.21.57.28l.2 1.01v.65l.1.17.1.28-.21.54c.2.21.43.36.7.47l-.11.73.48.54c-.05.56.08 1.14.38 1.74-.18.27-.28.61-.3 1.01.3.16.61.38.9.65l-.3.37c.28.42.47.94.57 1.55l.4.73c.01.07.07.13.19.19-.31.68-.25 1.31.19 1.92-.21.15-.38.4-.49.73.31.22.69.44 1.17.65-.25.59-.02.99.68 1.19.23.75 1.01 1.12 2.33 1.12l.11.63c0 .28-.04.64-.11 1.1-.36.19-.78.22-1.26.11-.97.72-2.17.9-3.61.54-.28.23-.63.3-1.07.19-.1-.24-.3-.46-.59-.65.13-.61-.1-.91-.68-.93v-1.1c.81.09 1.23-.27 1.27-1.1l.38-.45c.49.27.92.2 1.28-.19-.41.06-.87.03-1.38-.09l-.28-.28c.3-.47.23-.86-.19-1.19.12-.31.08-.65-.11-1.01-.31-.08-.59-.23-.87-.45-.3 0-.62.06-.98.17-.26.04-.51.01-.78-.09h-.3c-.19.06-.45.06-.76 0-.36.09-.72.12-1.08.09-.39.12-.87.21-1.47.28-.54.41-.66.93-.38 1.57-.26.2-.58.32-.98.37.12.45.09.97-.08 1.55.53.29.92.75 1.17 1.38.66.33.88.91.68 1.74l-.78.17c-.46.23-1.02.36-1.66.37l-.49.28c-1.2-.59-2.49-.66-3.89-.19-.55-.64-.81-1.43-.78-2.37.48-.38 1.07-.57 1.77-.56.35-.62.89-1.14 1.65-1.55-.27-.95-.04-1.69.68-2.2l.09-.56c.02-.41.02-.95 0-1.64v-.38c.29-.54.45-1.17.49-1.92l.4-.37c.18-.42.2-.91.09-1.47.29-.29.52-.68.68-1.19.07 0 .14-.04.19-.11l.11-.17.1-.19c.05-.48-.02-1.02-.21-1.64.35-.51.58-1.16.68-1.94l.59-1.01c.23-.49.27-1.07.11-1.73l.19-.37.48.26c.03-.21.09-.43.19-.64v-.25c-.23-.6-.17-1.25.22-1.94zm1.27 4.31c-.35.29-.35.63 0 1.01-.73.09-.87.58-.4 1.47-.13.19-.33.28-.57.28-.2.7-.1 1.01.3.92-.35.48-.45 1.02-.3 1.64-.48.3-.58.73-.3 1.29-.66.36-1.09.94-1.28 1.75.4.36.92.54 1.58.54.01.85.53 1.06 1.56.64.34.44.76.47 1.27.09.24.38.59.48 1.06.28-.33-.58-.59-1.28-.76-2.11.36-.09.52-.31.47-.65-.24-.21-.55-.3-.96-.26-.05-.43.18-.74.68-.92-.26-.28-.62-.52-1.08-.73-.04-.51-.33-.94-.87-1.29.11-.27.3-.57.59-.91-.17-.14-.36-.26-.59-.37.14-.93.01-1.82-.4-2.67zm-1.16 9.74c.11.27.2.27.28 0h-.28zm1.93-8.08c.1.49.19.49.3 0h-.3z"/>
</svg>
